<svg xmlns="http://www.w3.org/2000/svg" viewBox="0 0 550.91 383.99"><defs><style>.cls-1{fill:#00b1ff;}.cls-2{fill:#fff;}</style></defs><g id="Layer_2" data-name="Layer 2"><g id="Layer_1-2" data-name="Layer 1"><path class="cls-1" d="M231.9,142.64q-6.27-5.73-18.41-3.89a33,33,0,0,0-13,5.18,74,74,0,0,0-12.95,10.93A135.62,135.62,0,0,0,175,170.09q-6.07,8.5-11.79,17.88a46.82,46.82,0,0,0-4.22-13.5,31.89,31.89,0,0,0-8.68-11,35.81,35.81,0,0,0-13.52-6.58,45.43,45.43,0,0,0-18.37-.56q-16.65,2.5-32.93,12.68a113.19,113.19,0,0,0-28.76,25.84,111.72,111.72,0,0,0-18.88,35.63,90.34,90.34,0,0,0-3.12,41.75q2.07,13.72,7.83,22.16t13.24,12.26a30.07,30.07,0,0,0,15.35,3.44,29.54,29.54,0,0,0,14.29-4.35,27.73,27.73,0,0,0,10.16-11.19q3.73-7.23,2.69-17.2-10.09,4.75-17.56,4a23.7,23.7,0,0,1-12.55-4.66,28.42,28.42,0,0,1-8-9.83A39.67,39.67,0,0,1,56.25,255q-1.87-12.36,2.29-26.68a94.38,94.38,0,0,1,34.74-49.4,63.22,63.22,0,0,1,28.36-11.76q8.08-1.23,13.33,3a31.16,31.16,0,0,1,8.51,11.37,61.66,61.66,0,0,1,4.67,15.74,117.77,117.77,0,0,1,1.61,16,300.72,300.72,0,0,0-12.93,30.12q-5.87,16-10.26,31.8t-7.06,30.16a176.73,176.73,0,0,0-3.09,25.19q-.44,10.88,1.64,17t7.25,5.35q6.52-1,12.6-8.69a82.18,82.18,0,0,0,11-19.84,223.89,223.89,0,0,0,9-27.46,318.88,318.88,0,0,0,6.52-31.45q2.5-16.14,3.44-32a240.22,240.22,0,0,0,.09-29.11A171.1,171.1,0,0,1,176,189.14,123.66,123.66,0,0,1,185.73,175a68.38,68.38,0,0,1,10.67-10.81,24.07,24.07,0,0,1,11.39-5.28c2.85-.43,5,.93,6.37,4.09s2,7.29,1.87,12.37a66.92,66.92,0,0,1-3,16.89,70.46,70.46,0,0,1-8.12,17.79,60.39,60.39,0,0,1-13.6,15.05A44.06,44.06,0,0,1,172,233.8a29.2,29.2,0,0,0-2.21,9.76,9.82,9.82,0,0,0,2.06,6q2,2.58,8.29,1.62,11.7-1.75,17.44,5.07t5.91,18.55q.15,11.7-4.71,25.89a104.93,104.93,0,0,1-14.39,27.36A99.52,99.52,0,0,1,161,351a71.51,71.51,0,0,1-31.13,12.41q-9.23,1.4-15.3-.79a24.2,24.2,0,0,1-9.94-6.44A27.27,27.27,0,0,1,99,346.82a35.86,35.86,0,0,1-2.08-9.92,28.36,28.36,0,0,1,.52-8c.51-2.15,1.3-3.3,2.35-3.46a7.54,7.54,0,0,0-7.11.15,12.8,12.8,0,0,0-5,6.17A32.21,32.21,0,0,0,85.26,342a42.87,42.87,0,0,0,.81,12.18,47.37,47.37,0,0,0,4.37,12.22A30.6,30.6,0,0,0,99,376.6a36.5,36.5,0,0,0,13.36,6.26q7.9,2,18.47.43A109.67,109.67,0,0,0,163,373.37a125.21,125.21,0,0,0,26.69-17.49,126.88,126.88,0,0,0,20.53-22.42A115.81,115.81,0,0,0,224,308.51a95.47,95.47,0,0,0,6.25-24.86,56.49,56.49,0,0,0-1.74-22.17,37.79,37.79,0,0,0-10.38-16.94q-7.38-6.94-19.68-9.22,9.28-2.55,17.38-11.36a89.84,89.84,0,0,0,13.86-20.15,100.69,100.69,0,0,0,8.51-23.6,62.08,62.08,0,0,0,1.38-22.05Q238.17,148.35,231.9,142.64ZM146.56,265.92q-2.06,14.56-4.72,26.59a187.83,187.83,0,0,1-5.39,19.9q-2.72,7.89-5,8.22-2.47.38-2-7.28a145.42,145.42,0,0,1,3-19.88q2.52-12.23,7-27t9.91-28.76Q148.62,251.35,146.56,265.92Z"/><path class="cls-1" d="M550.91,209l-8.78,1.32c-1,3.68-2.16,7.54-3.54,11.57S535.68,230,534,234.19s-3.47,8.19-5.42,12.09a84.31,84.31,0,0,1-6.12,10.47q-2.06-7.51-5-15.58t-5.8-15.56q-2.85-7.52-5.13-14.18a69.19,69.19,0,0,1-3-11.62,35.47,35.47,0,0,1-.09-11.25,27.74,27.74,0,0,1,2.75-8.47,16.22,16.22,0,0,1,4.68-5.53,13.07,13.07,0,0,1,5.72-2.48c-.53-1.45-1.15-3.08-1.89-4.89a37.35,37.35,0,0,0-2.48-5,22.2,22.2,0,0,0-3.15-4.12,8.44,8.44,0,0,0-4.15-2.36A25,25,0,0,0,491.52,163a39.7,39.7,0,0,0-8.32,13.44,58.26,58.26,0,0,0-3.58,16.64,77.51,77.51,0,0,0,.6,16.93,76.35,76.35,0,0,0,2.19,9.78,214,214,0,0,1-8.08,23.54,148,148,0,0,1-7.8,16.13,38.05,38.05,0,0,1-6.89,9.2q-3.24,2.91-5.49,3.25-4.72.71-6.08-8.29t-.23-24.34q1.14-15.35,4.24-35.14t7.06-40.85c1-.31,2.57-.7,4.65-1.16s4.24-.87,6.49-1.21a35.32,35.32,0,0,1,6-.45c1.77,0,2.94.4,3.5,1.08a7.62,7.62,0,0,0,2.28-3.22,11.69,11.69,0,0,0,.85-4.27,9.27,9.27,0,0,0-1-4.22,6.89,6.89,0,0,0-3-3.11,7.24,7.24,0,0,0-3.56-.73,47.15,47.15,0,0,0-4.79.26,39.41,39.41,0,0,0-4.93.86c-1.62.41-3,.76-4,1.07.58-3.31,1.12-6.53,1.65-9.68s.84-5.34,1-6.59a17.82,17.82,0,0,0-1.49-9.09,12.37,12.37,0,0,0-5.06-5.33,15.6,15.6,0,0,0-7.41-1.87,26.16,26.16,0,0,0-8.32,1.26c-.1,1.39-.31,3.08-.62,5s-.72,4.36-1.21,7.2-1.1,6.22-1.8,10.16-1.42,8.65-2.13,14.12a44.85,44.85,0,0,1-7.61,1.38c-2.57.23-4.93.36-7.07.37q-3.9.14-7.36,0a29.78,29.78,0,0,0,1.35,9,7.64,7.64,0,0,0,3.53,4.3,10.69,10.69,0,0,0,6,.93q3.63-.32,8.36-1-2.31,13.69-4.89,28.57T424,226.08c-.57,4.19-1.05,8.25-1.45,12.24-.5,1.46-1,3-1.62,4.67q-2,5.72-4.64,12c-1.74,4.18-3.57,8.09-5.46,11.75a53.55,53.55,0,0,1-5.87,9.17q-3,3.67-5.7,4.08c-1.5.22-2.34-1.79-2.53-6.06a111.55,111.55,0,0,1,.85-16.46q1.13-10,3.09-22.2t4-23.14q2-11,3.86-19.32c1.23-5.56,2.1-9.21,2.6-11-.11-.75-.82-1.37-2.12-1.86a32.2,32.2,0,0,0-4.45-1.28,28,28,0,0,0-5.15-.61,25.87,25.87,0,0,0-4,.15,4.82,4.82,0,0,0-3.26,2,14.89,14.89,0,0,0-2,3.63,17.19,17.19,0,0,0-1,3.48,10.51,10.51,0,0,0-.19,1.76,13.4,13.4,0,0,1-1.4-1.63,13.66,13.66,0,0,0-3.54-2.92,20,20,0,0,0-6.21-2.28,26.16,26.16,0,0,0-9.2,0,35.52,35.52,0,0,0-17.45,7.81,62.84,62.84,0,0,0-13.61,15.74,98.94,98.94,0,0,0-9.63,20.77,140.63,140.63,0,0,0-5.6,23c-.64,4.14-1.07,8.18-1.3,12.15-.52,1.33-1,2.64-1.56,3.93a107.45,107.45,0,0,1-9.34,18.08,53.93,53.93,0,0,1-10.58,12.18,24,24,0,0,1-11.6,5.43,11.72,11.72,0,0,1-9.06-2.08,20.23,20.23,0,0,1-6.23-7.8,38.85,38.85,0,0,1-3.29-11.12,43.51,43.51,0,0,1-.21-12,42.46,42.46,0,0,0,21.05-7.55,59,59,0,0,0,14.95-15.25,60.9,60.9,0,0,0,8.45-18.64A50.06,50.06,0,0,0,315.29,209q-.87-8-5.37-12.76t-12.83-3.47a49.8,49.8,0,0,0-27.46,13.12,73.54,73.54,0,0,0-17.36,25.16A96.08,96.08,0,0,0,245,261.4a80.74,80.74,0,0,0,2.62,28.81q3.81,13,12.66,20.63t22.58,5.56q13-2,21.81-8.59a56.71,56.71,0,0,0,14.73-16.71q1.57-2.67,3-5.54c.38,1.86.82,3.65,1.34,5.34q2.49,8.14,7.08,12.62T342.39,307a32.65,32.65,0,0,0,13-4.61,38.31,38.31,0,0,0,8.85-7.66,35.57,35.57,0,0,0,5.23-8q1.71-3.82,2.57-5.8.47,1.54,1.55,4.94a23.07,23.07,0,0,0,3.55,6.71,19.2,19.2,0,0,0,6.7,5.54q4.24,2.23,11.22,1.19,8.76-1.34,15.36-9.46a78.87,78.87,0,0,0,11.25-19.17c.06-.15.11-.3.17-.44.2,1.74.44,3.42.74,5q1.76,9.29,6.52,14.2T442.61,293a36.63,36.63,0,0,0,15.44-5.9A50.68,50.68,0,0,0,469.72,276a71,71,0,0,0,8.52-14.39,151.7,151.7,0,0,0,6-15.74q1.85-5.85,3.25-11.38c.68,1.83,1.36,3.65,2.07,5.51q3,8,5.92,16.36a139.26,139.26,0,0,1,4.66,17.12,55.57,55.57,0,0,1-9.7,5.83,65.66,65.66,0,0,0-10.34,6.16,29,29,0,0,0-7.72,8.3c-2,3.21-2.58,7.29-1.83,12.24q1.05,7,5.92,10.26a21,21,0,0,0,11.56,3.42,33.3,33.3,0,0,0,13.82-2.89,39.68,39.68,0,0,0,21.76-23.41q3.09-8.52,1.42-19.53,6.69-7.45,13.42-23.07T550.91,209ZM273.73,239.93a85.76,85.76,0,0,1,6.57-15.14,49.06,49.06,0,0,1,8.62-11.42,18.9,18.9,0,0,1,10.22-5.46c1.8-.27,3.05.66,3.75,2.77a17.74,17.74,0,0,1,.31,8.12A51.34,51.34,0,0,1,299.94,230a48.87,48.87,0,0,1-6.74,11.71,47.84,47.84,0,0,1-10.15,9.7,30.41,30.41,0,0,1-13.33,5.35A99.52,99.52,0,0,1,273.73,239.93ZM381.51,215q-1.27,7.56-3.13,16.57T374,250.2a159.14,159.14,0,0,1-5.75,17.54,68.78,68.78,0,0,1-6.84,13.34q-3.66,5.39-7.72,6t-5.59-5.83a63.9,63.9,0,0,1-1.23-16.49,157.27,157.27,0,0,1,2.43-22,161.35,161.35,0,0,1,5.58-22.46,75.92,75.92,0,0,1,8.33-17.94q4.86-7.4,10.48-8.25a6.42,6.42,0,0,1,4.24.63,9.18,9.18,0,0,1,2.91,2.55,12.36,12.36,0,0,1,1.77,3.29,18.59,18.59,0,0,1,.81,3.1Q382.79,207.48,381.51,215Zm119,82.65a20.91,20.91,0,0,1-7.5,7.46,16.62,16.62,0,0,1-8.49,2.43q-4-.07-4.44-2.78a6.84,6.84,0,0,1,2.19-6.08,33.92,33.92,0,0,1,6.48-5q3.79-2.29,7.64-4.26A21.22,21.22,0,0,0,502,285.6Q503.52,292.73,500.48,297.67Z"/><polygon class="cls-2" points="103.17 20.72 82.05 20.72 57.73 51.24 50.24 61.8 50.24 20.72 31.2 20.72 31.2 110.5 50.24 110.5 50.24 78.44 58.28 72.67 81.8 110.5 103.42 110.5 71.86 60.45 103.17 20.72"/><path class="cls-2" d="M132.4,119.32v-106A13.2,13.2,0,0,0,119.22.1h-106A13.2,13.2,0,0,0,0,13.28v106A13.19,13.19,0,0,0,13.18,132.5h106A13.2,13.2,0,0,0,132.4,119.32ZM7,119.32v-106A6.19,6.19,0,0,1,13.18,7.1h106a6.2,6.2,0,0,1,6.18,6.18v106a6.19,6.19,0,0,1-6.18,6.18h-106A6.18,6.18,0,0,1,7,119.32Z"/><polygon class="cls-2" points="237.68 94.67 205.01 94.67 205.01 71.52 235.41 71.52 235.41 55.93 205.01 55.93 205.01 36.21 237.68 36.21 237.68 20.62 185.97 20.62 185.97 110.4 237.68 110.4 237.68 94.67"/><path class="cls-2" d="M159.48,132.4h106a13.2,13.2,0,0,0,13.18-13.18v-106A13.19,13.19,0,0,0,265.51,0h-106A13.19,13.19,0,0,0,146.3,13.18v106A13.2,13.2,0,0,0,159.48,132.4ZM153.3,13.18A6.18,6.18,0,0,1,159.48,7h106a6.18,6.18,0,0,1,6.18,6.18v106a6.19,6.19,0,0,1-6.18,6.18h-106a6.19,6.19,0,0,1-6.18-6.18Z"/><polygon class="cls-2" points="350.35 110.4 369.27 110.4 369.27 75.45 399.05 20.62 378.54 20.62 359.81 57.58 341.2 20.62 320.57 20.62 350.35 76.07 350.35 110.4"/><path class="cls-2" d="M305.78,132.4h106A13.2,13.2,0,0,0,425,119.22v-106A13.19,13.19,0,0,0,411.81,0h-106A13.19,13.19,0,0,0,292.6,13.18v106A13.2,13.2,0,0,0,305.78,132.4ZM299.6,13.18A6.18,6.18,0,0,1,305.78,7h106A6.18,6.18,0,0,1,418,13.18v106a6.19,6.19,0,0,1-6.18,6.18h-106a6.19,6.19,0,0,1-6.18-6.18Z"/></g></g></svg>